<svg width="25" height="25" viewBox="0 0 25 25" fill="none" xmlns="http://www.w3.org/2000/svg">
<path d="M12.5 0C9.19717 0.0398477 6.04085 1.3696 3.70522 3.70522C1.3696 6.04085 0.0398477 9.19717 0 12.5C0.0398477 15.8028 1.3696 18.9592 3.70522 21.2948C6.04085 23.6304 9.19717 24.9602 12.5 25C15.8028 24.9602 18.9592 23.6304 21.2948 21.2948C23.6304 18.9592 24.9602 15.8028 25 12.5C24.9602 9.19717 23.6304 6.04085 21.2948 3.70522C18.9592 1.3696 15.8028 0.0398477 12.5 0ZM19.6429 13.3929H13.3929V19.6429H11.6071V13.3929H5.35714V11.6071H11.6071V5.35714H13.3929V11.6071H19.6429V13.3929Z" fill="#0D2841"/>
</svg>
